<svg width="26" height="26" viewBox="0 0 26 26" fill="none" xmlns="http://www.w3.org/2000/svg">
<path d="M13.0007 21.6663C12.4048 21.6663 11.8947 21.4542 11.4704 21.0299C11.0461 20.6056 10.834 20.0955 10.834 19.4997C10.834 18.9038 11.0461 18.3938 11.4704 17.9695C11.8947 17.5452 12.4048 17.333 13.0007 17.333C13.5965 17.333 14.1066 17.5452 14.5309 17.9695C14.9552 18.3938 15.1673 18.9038 15.1673 19.4997C15.1673 20.0955 14.9552 20.6056 14.5309 21.0299C14.1066 21.4542 13.5965 21.6663 13.0007 21.6663ZM13.0007 15.1663C12.4048 15.1663 11.8947 14.9542 11.4704 14.5299C11.0461 14.1056 10.834 13.5955 10.834 12.9997C10.834 12.4038 11.0461 11.8938 11.4704 11.4695C11.8947 11.0452 12.4048 10.833 13.0007 10.833C13.5965 10.833 14.1066 11.0452 14.5309 11.4695C14.9552 11.8938 15.1673 12.4038 15.1673 12.9997C15.1673 13.5955 14.9552 14.1056 14.5309 14.5299C14.1066 14.9542 13.5965 15.1663 13.0007 15.1663ZM13.0007 8.66634C12.4048 8.66634 11.8947 8.45419 11.4704 8.02988C11.0461 7.60558 10.834 7.09551 10.834 6.49967C10.834 5.90384 11.0461 5.39377 11.4704 4.96947C11.8947 4.54516 12.4048 4.33301 13.0007 4.33301C13.5965 4.33301 14.1066 4.54516 14.5309 4.96947C14.9552 5.39377 15.1673 5.90384 15.1673 6.49967C15.1673 7.09551 14.9552 7.60558 14.5309 8.02988C14.1066 8.45419 13.5965 8.66634 13.0007 8.66634Z" fill="#9FACBD"/>
</svg>
