<svg width="23" height="21" viewBox="0 0 23 21" fill="none" xmlns="http://www.w3.org/2000/svg">
<path d="M11.3932 0C13.4503 0 15.3529 0.399994 17.101 1.19998C18.8492 1.99996 20.2312 3.08778 21.247 4.46344C22.2629 5.83908 22.7708 7.33955 22.7708 8.96494C22.7708 10.5903 22.2629 12.0929 21.247 13.4728C20.2312 14.8527 18.8513 15.9426 17.1074 16.7426C15.3635 17.5425 13.4588 17.9426 11.3932 17.9426C10.7414 17.9426 10.0683 17.896 9.37422 17.8029C6.36048 19.8938 4.75628 20.952 4.56156 20.9774C4.46847 21.0113 4.37959 21.0071 4.29494 20.9647C4.26105 20.9393 4.23564 20.9055 4.21872 20.8631C4.2018 20.8208 4.19331 20.7827 4.19331 20.7488V20.6981C4.24412 20.3679 4.6293 18.9923 5.34887 16.5712C3.71503 15.7585 2.4177 14.6813 1.45687 13.3395C0.496042 11.9977 0.015625 10.5395 0.015625 8.96494C0.015625 7.33955 0.523553 5.83908 1.53941 4.46344C2.55527 3.08778 3.93725 1.99996 5.68539 1.19998C7.4335 0.399994 9.33611 0 11.3932 0ZM5.62825 11.3395V7.44112H6.63137C6.76684 7.44112 6.90864 7.39247 7.05677 7.29511C7.20494 7.19775 7.279 7.06444 7.279 6.89512C7.279 6.72581 7.21127 6.58402 7.07584 6.46973C6.94037 6.35545 6.80917 6.29831 6.68219 6.29831H3.38065C3.23673 6.29831 3.10129 6.34064 2.9743 6.4253C2.84732 6.50995 2.78383 6.64964 2.78383 6.84431C2.78383 7.03903 2.85156 7.1872 2.987 7.28878C3.12245 7.39036 3.27483 7.44112 3.44414 7.44112H4.44728V11.3395C4.44728 11.5511 4.49809 11.7247 4.59967 11.8601C4.70125 11.9955 4.84516 12.0633 5.03139 12.0633C5.21767 12.0633 5.36369 11.9871 5.46948 11.8347C5.57533 11.6823 5.62825 11.5173 5.62825 11.3395ZM11.1265 12.0633C11.4398 11.9448 11.5371 11.6443 11.4186 11.1617C11.3847 11.0517 11.1456 10.3935 10.7012 9.18713C10.2567 7.9808 10.0007 7.293 9.93292 7.12369C9.70436 6.57342 9.39114 6.29831 8.99327 6.29831C8.5615 6.29831 8.22714 6.57342 7.99009 7.12369C7.92236 7.26759 7.66417 7.96814 7.21548 9.22523C6.76684 10.4824 6.53402 11.1278 6.51709 11.1617C6.45784 11.2379 6.44303 11.3776 6.47266 11.5807C6.50228 11.784 6.59331 11.9236 6.74566 11.9998C6.91497 12.076 7.08006 12.0845 7.24089 12.0252C7.40177 11.9659 7.51178 11.877 7.57103 11.7585L7.87581 10.9205H10.0853C10.1784 11.2252 10.2461 11.4241 10.2885 11.5173C10.3308 11.6019 10.3773 11.6866 10.4282 11.7712C10.4789 11.8559 10.5721 11.9384 10.7075 12.0188C10.843 12.0993 10.9826 12.1141 11.1265 12.0633ZM14.5424 12.0633C14.7201 12.0633 14.8831 12.0083 15.0312 11.8982C15.1794 11.7882 15.2535 11.64 15.2535 11.4538C15.2535 11.2675 15.1857 11.1215 15.0503 11.0157C14.9148 10.9099 14.7455 10.857 14.5424 10.857H13.1328V7.02211C13.1328 6.84431 13.08 6.67927 12.9741 6.52688C12.8683 6.37448 12.7223 6.29831 12.536 6.29831C12.3498 6.29831 12.2059 6.36605 12.1043 6.50147C12.0027 6.63694 11.9519 6.81047 11.9519 7.02211V11.3395C11.9519 11.5511 12.0027 11.7247 12.1043 11.8601C12.2059 11.9955 12.3498 12.0633 12.536 12.0633C12.5445 12.0633 12.5593 12.0612 12.5805 12.057C12.6017 12.0527 12.6165 12.0506 12.625 12.0506C12.6334 12.0506 12.6482 12.0527 12.6694 12.057C12.6905 12.0612 12.7053 12.0633 12.7138 12.0633H14.5424ZM19.5454 11.9744C19.6894 11.8389 19.7613 11.6844 19.7613 11.5109C19.7613 11.3374 19.7063 11.1829 19.5962 11.0475C19.5454 10.9712 19.0121 10.2559 17.9963 8.90142C18.4873 8.40197 18.9825 7.90252 19.482 7.40306C19.609 7.27608 19.6872 7.1258 19.7169 6.95227C19.7465 6.77873 19.6978 6.61575 19.5708 6.46341C19.4269 6.32794 19.2724 6.27291 19.1073 6.29831C18.9423 6.32372 18.7878 6.40837 18.6439 6.55228C18.6185 6.57769 18.5084 6.68981 18.3137 6.88875C18.119 7.08773 17.8672 7.34381 17.5582 7.65703C17.2492 7.97025 16.9762 8.24958 16.7392 8.49511V7.02211C16.7392 6.84431 16.6862 6.67927 16.5804 6.52688C16.4746 6.37448 16.3286 6.29831 16.1424 6.29831C15.9561 6.29831 15.8122 6.36605 15.7106 6.50147C15.609 6.63694 15.5582 6.81047 15.5582 7.02211V11.3395C15.5582 11.5511 15.609 11.7247 15.7106 11.8601C15.8122 11.9955 15.9561 12.0633 16.1424 12.0633C16.3286 12.0633 16.4746 11.9871 16.5804 11.8347C16.6862 11.6823 16.7392 11.5173 16.7392 11.3395V10.184C16.773 10.1501 16.8365 10.0845 16.9296 9.98714C17.0228 9.88978 17.0989 9.81145 17.1582 9.7522C17.7169 10.5141 18.2164 11.1871 18.6566 11.7712C18.7751 11.9321 18.9127 12.0358 19.0693 12.0824C19.2259 12.1289 19.3846 12.0929 19.5454 11.9744ZM8.21866 9.77761L8.99327 7.50464L9.75512 9.77761H8.21866Z" fill="black"/>
</svg>
