<svg width="151" height="158" viewBox="0 0 151 158" fill="none" xmlns="http://www.w3.org/2000/svg">
<rect x="25.5" width="100" height="100" rx="50" fill="#F2F4F8"/>
<path d="M67.8197 25.9936C67.6453 21.6315 71.1344 18 75.5 18C79.8656 18 83.3547 21.6315 83.1803 25.9936L81.823 59.9249C81.6873 63.3186 78.8965 66 75.5 66C72.1035 66 69.3127 63.3186 69.177 59.9249L67.8197 25.9936Z" fill="white"/>
  <path d="
    M 68.5,77
    v 0
    a 5,5 0 0 1 5,-5
    h 4
    a 5,5 0 0 1 5,5
    v 0
    a 5,5 0 0 1 -5,5
    h -4
    a 5,5 0 0 1 -5,-5
    Z
  " fill="white" />
<path d="M14.5234 140.953C14.5234 141.562 14.6641 142.148 14.9453 142.711C15.2318 143.268 15.6328 143.763 16.1484 144.195C16.6641 144.628 17.263 144.964 17.9453 145.203L17.3203 146.156C16.5339 145.875 15.8464 145.464 15.2578 144.922C14.6693 144.375 14.2266 143.742 13.9297 143.023C13.6328 143.805 13.1797 144.492 12.5703 145.086C11.9609 145.674 11.2474 146.12 10.4297 146.422L9.77344 145.469C10.4609 145.224 11.0729 144.872 11.6094 144.414C12.1458 143.956 12.5625 143.427 12.8594 142.828C13.1615 142.229 13.3151 141.604 13.3203 140.953V140.359H10.1484V139.359H17.6484V140.359H14.5234V140.953ZM20.6797 142.047H22.7734V143.094H20.6797V146.75H19.4609V138.375H20.6797V142.047ZM20.6797 152.266H19.4609V148.484H11.5859V147.484H20.6797V152.266ZM28.4297 140.562C28.4245 141.214 28.5651 141.836 28.8516 142.43C29.138 143.018 29.5417 143.534 30.0625 143.977C30.5885 144.419 31.1901 144.755 31.8672 144.984L31.1797 145.938C30.4089 145.646 29.7344 145.227 29.1562 144.68C28.5781 144.133 28.1406 143.495 27.8438 142.766C27.5469 143.599 27.0911 144.328 26.4766 144.953C25.862 145.573 25.138 146.042 24.3047 146.359L23.6328 145.359C24.3411 145.109 24.9635 144.75 25.5 144.281C26.0417 143.807 26.4609 143.255 26.7578 142.625C27.0547 141.99 27.2057 141.318 27.2109 140.609V139.172H28.4297V140.562ZM35.1641 146.609H33.9297V142.375H30.8359V141.359H33.9297V138.375H35.1641V146.609ZM30.5547 147.016C31.5182 147.016 32.349 147.12 33.0469 147.328C33.7448 147.531 34.2786 147.831 34.6484 148.227C35.0234 148.617 35.2109 149.089 35.2109 149.641C35.2109 150.188 35.0234 150.654 34.6484 151.039C34.2786 151.43 33.7448 151.727 33.0469 151.93C32.349 152.133 31.5182 152.234 30.5547 152.234C29.5911 152.234 28.7604 152.133 28.0625 151.93C27.3646 151.727 26.8281 151.43 26.4531 151.039C26.0833 150.654 25.8984 150.188 25.8984 149.641C25.8984 149.089 26.0833 148.617 26.4531 148.227C26.8281 147.831 27.3646 147.531 28.0625 147.328C28.7604 147.12 29.5911 147.016 30.5547 147.016ZM30.5547 147.984C29.8516 147.984 29.2396 148.052 28.7188 148.188C28.1979 148.318 27.7995 148.508 27.5234 148.758C27.2474 149.008 27.112 149.302 27.1172 149.641C27.112 149.969 27.2474 150.255 27.5234 150.5C27.7995 150.74 28.1979 150.924 28.7188 151.055C29.2396 151.185 29.8516 151.25 30.5547 151.25C31.2578 151.25 31.8672 151.185 32.3828 151.055C32.9036 150.924 33.3021 150.74 33.5781 150.5C33.8542 150.255 33.9922 149.969 33.9922 149.641C33.9922 149.302 33.8542 149.008 33.5781 148.758C33.3021 148.508 32.9036 148.318 32.3828 148.188C31.8672 148.052 31.2578 147.984 30.5547 147.984ZM45.5547 143.938H42.7422V145.883C44.138 145.815 45.4036 145.719 46.5391 145.594L46.6328 146.5C44.1849 146.833 41.2161 147 37.7266 147L37.5391 146C39.0964 145.99 40.4245 145.966 41.5234 145.93V143.938H38.8047V139.281H45.4453V140.297H40.0391V142.938H45.5547V143.938ZM48.9297 148.781H47.6953V138.391H48.9297V148.781ZM49.3828 151.969H39.9141V148.062H41.1328V150.938H49.3828V151.969ZM66.7891 152.297H65.5703V138.375H66.7891V152.297ZM62.5703 144.609H57.3828V147.891C58.6276 147.891 59.7839 147.854 60.8516 147.781C61.9245 147.708 63.0495 147.578 64.2266 147.391L64.3516 148.422C63.1484 148.615 61.9974 148.747 60.8984 148.82C59.7995 148.888 58.5964 148.922 57.2891 148.922H56.1328V143.609H61.3359V140.688H56.1016V139.672H62.5703V144.609ZM81.8516 147.516H78.6016V152.266H77.3828V147.516H73.6016V152.266H72.3516V147.516H69.1328V146.484H81.8516V147.516ZM71.9766 140.828H78.9766V138.938H80.2109V144.844H70.7578V138.938H71.9766V140.828ZM78.9766 143.844V141.812H71.9766V143.844H78.9766ZM93.7266 144.031H95.9766V145.062H93.7266V152.266H92.5078V138.375H93.7266V144.031ZM90.1328 139.875C90.1328 141.943 89.6146 143.818 88.5781 145.5C87.5417 147.177 85.9349 148.552 83.7578 149.625L83.0703 148.656C84.8568 147.766 86.2396 146.667 87.2188 145.359C88.1979 144.047 88.7578 142.562 88.8984 140.906H83.7109V139.875H90.1328ZM103.586 148.266H106.117V146.531H107.258V152.078H102.43V146.531H103.586V148.266ZM106.117 151.109V149.203H103.586V151.109H106.117ZM111.227 147.625C111.221 148.125 111.315 148.615 111.508 149.094C111.706 149.568 111.997 149.995 112.383 150.375C112.773 150.755 113.242 151.047 113.789 151.25L113.148 152.188C112.529 151.938 112.003 151.583 111.57 151.125C111.143 150.667 110.82 150.138 110.602 149.539C110.372 150.128 110.044 150.651 109.617 151.109C109.19 151.573 108.68 151.932 108.086 152.188L107.445 151.25C107.987 151.026 108.451 150.721 108.836 150.336C109.221 149.951 109.513 149.523 109.711 149.055C109.909 148.581 110.008 148.104 110.008 147.625V146.438H111.227V147.625ZM104.648 139C105.263 139 105.823 139.109 106.328 139.328C106.833 139.547 107.247 139.859 107.57 140.266C107.898 140.667 108.107 141.13 108.195 141.656H111.102V138.375H112.336V145.734H111.102V142.672H108.203C108.125 143.214 107.922 143.69 107.594 144.102C107.271 144.513 106.854 144.831 106.344 145.055C105.833 145.279 105.268 145.391 104.648 145.391C103.951 145.391 103.328 145.258 102.781 144.992C102.234 144.721 101.807 144.344 101.5 143.859C101.193 143.37 101.039 142.812 101.039 142.188C101.039 141.568 101.193 141.016 101.5 140.531C101.807 140.047 102.234 139.672 102.781 139.406C103.328 139.135 103.951 139 104.648 139ZM104.648 140.031C104.18 140.031 103.76 140.122 103.391 140.305C103.021 140.487 102.732 140.742 102.523 141.07C102.315 141.398 102.211 141.771 102.211 142.188C102.211 142.609 102.315 142.987 102.523 143.32C102.732 143.648 103.021 143.906 103.391 144.094C103.76 144.281 104.18 144.375 104.648 144.375C105.112 144.375 105.526 144.281 105.891 144.094C106.255 143.906 106.539 143.648 106.742 143.32C106.951 142.987 107.055 142.609 107.055 142.188C107.055 141.771 106.951 141.398 106.742 141.07C106.539 140.742 106.255 140.487 105.891 140.305C105.526 140.122 105.112 140.031 104.648 140.031ZM118.383 139.453C119.008 139.458 119.568 139.633 120.062 139.977C120.562 140.32 120.966 140.81 121.273 141.445C121.581 142.081 121.766 142.828 121.828 143.688H124.945V138.375H126.164V152.297H124.945V144.703H121.844C121.797 145.599 121.622 146.38 121.32 147.047C121.018 147.714 120.612 148.227 120.102 148.586C119.596 148.945 119.023 149.125 118.383 149.125C117.706 149.125 117.102 148.927 116.57 148.531C116.044 148.135 115.633 147.573 115.336 146.844C115.044 146.115 114.898 145.266 114.898 144.297C114.898 143.328 115.044 142.479 115.336 141.75C115.633 141.021 116.044 140.458 116.57 140.062C117.096 139.661 117.701 139.458 118.383 139.453ZM118.383 140.547C117.93 140.552 117.526 140.711 117.172 141.023C116.823 141.331 116.552 141.768 116.359 142.336C116.167 142.898 116.07 143.552 116.07 144.297C116.07 145.042 116.167 145.698 116.359 146.266C116.552 146.828 116.823 147.263 117.172 147.57C117.526 147.878 117.93 148.031 118.383 148.031C118.831 148.031 119.229 147.878 119.578 147.57C119.932 147.263 120.206 146.828 120.398 146.266C120.596 145.698 120.695 145.042 120.695 144.297C120.695 143.552 120.596 142.898 120.398 142.336C120.206 141.768 119.935 141.331 119.586 141.023C119.237 140.711 118.836 140.552 118.383 140.547ZM141.195 150.484H128.477V149.453H131.633V145.703C131.029 145.391 130.56 144.99 130.227 144.5C129.893 144.005 129.727 143.448 129.727 142.828C129.727 142.12 129.943 141.497 130.375 140.961C130.807 140.419 131.406 140 132.172 139.703C132.943 139.406 133.82 139.255 134.805 139.25C135.789 139.255 136.664 139.406 137.43 139.703C138.201 140 138.802 140.419 139.234 140.961C139.667 141.497 139.883 142.12 139.883 142.828C139.883 143.438 139.721 143.987 139.398 144.477C139.076 144.961 138.622 145.359 138.039 145.672V149.453H141.195V150.484ZM134.805 140.266C134.049 140.26 133.378 140.365 132.789 140.578C132.201 140.792 131.74 141.094 131.406 141.484C131.078 141.87 130.914 142.318 130.914 142.828C130.914 143.339 131.078 143.792 131.406 144.188C131.74 144.578 132.201 144.883 132.789 145.102C133.378 145.315 134.049 145.422 134.805 145.422C135.555 145.422 136.224 145.312 136.812 145.094C137.401 144.875 137.862 144.57 138.195 144.18C138.529 143.789 138.695 143.339 138.695 142.828C138.695 142.318 138.529 141.87 138.195 141.484C137.862 141.094 137.401 140.792 136.812 140.578C136.224 140.365 135.555 140.26 134.805 140.266ZM136.805 149.453V146.148C136.185 146.31 135.518 146.391 134.805 146.391C134.086 146.391 133.43 146.312 132.836 146.156V149.453H136.805Z" fill="#9FACBD"/>
</svg>
