<svg width="150" height="158" viewBox="0 0 150 158" fill="none" xmlns="http://www.w3.org/2000/svg">
<rect x="25" width="100" height="100" rx="50" fill="#F2F4F8"/>
<path d="M67.3197 25.9936C67.1453 21.6315 70.6344 18 75 18V18C79.3656 18 82.8547 21.6315 82.6803 25.9936L81.323 59.9248C81.1873 63.3186 78.3965 66 75 66V66C71.6035 66 68.8127 63.3186 68.677 59.9249L67.3197 25.9936Z" fill="#9CA3AF"/>
<rect x="68" y="72" width="14" height="10" rx="5" fill="#9CA3AF"/>
<path d="M21.9922 144.984V146.016H9.32031V144.984H21.9922ZM20.5078 142.656V143.656H10.9297V138.938H20.4141V139.969H12.1328V142.656H20.5078ZM15.6484 147.234C18.6328 147.234 20.4141 148.141 20.4297 149.734C20.4141 151.344 18.6328 152.234 15.6484 152.234C12.6484 152.234 10.8516 151.344 10.8516 149.734C10.8516 148.141 12.6484 147.234 15.6484 147.234ZM15.6484 148.188C13.4141 148.203 12.0859 148.766 12.1016 149.734C12.0859 150.719 13.4141 151.266 15.6484 151.266C17.8516 151.266 19.1953 150.719 19.1953 149.734C19.1953 148.766 17.8516 148.203 15.6484 148.188ZM35.8516 146.031V147.047H23.1328V146.031H28.8828V144.562H24.7891V141.172H32.9766V139.734H24.7422V138.734H34.2109V142.094H26.0078V143.578H34.5078V144.562H30.0859V146.031H35.8516ZM34.2891 148.109V152.141H33.0547V149.109H24.5547V148.109H34.2891ZM47.8359 138.391V142.969H49.9297V144H47.8359V148.797H46.6172V138.391H47.8359ZM45.2891 140.094V141.094H37.0078V140.094H40.5391V138.391H41.7578V140.094H45.2891ZM41.1484 141.859C43.1328 141.859 44.4766 142.875 44.4922 144.453C44.4766 146.016 43.1328 147.016 41.1484 147.016C39.1484 147.016 37.7891 146.016 37.8047 144.453C37.7891 142.875 39.1484 141.859 41.1484 141.859ZM41.1484 142.828C39.8359 142.828 38.9609 143.469 38.9766 144.453C38.9609 145.438 39.8359 146.062 41.1484 146.047C42.4453 146.062 43.3203 145.438 43.3359 144.453C43.3203 143.469 42.4453 142.828 41.1484 142.828ZM48.4766 150.938V151.969H39.1484V147.969H40.3516V150.938H48.4766ZM59.0078 139.281C61.1484 139.297 62.6953 140.609 62.7109 142.547C62.6953 144.289 61.4453 145.531 59.6328 145.75V148.125C60.9297 148.062 62.2344 147.969 63.4453 147.812L63.5234 148.734C60.5859 149.234 57.2891 149.266 54.8516 149.25L54.6484 148.219C55.7656 148.211 57.0625 148.203 58.3984 148.156V145.75C56.5547 145.539 55.2891 144.297 55.3047 142.547C55.2891 140.609 56.8359 139.297 59.0078 139.281ZM59.0078 140.344C57.5547 140.344 56.4922 141.25 56.5078 142.547C56.4922 143.844 57.5547 144.75 59.0078 144.75C60.4453 144.75 61.4922 143.844 61.5078 142.547C61.4922 141.25 60.4453 140.344 59.0078 140.344ZM65.5547 138.375V144.109H67.8203V145.172H65.5547V152.266H64.3359V138.375H65.5547ZM80.1172 138.391V148.547H78.8984V138.391H80.1172ZM80.5547 150.938V151.969H71.1484V147.516H72.3672V150.938H80.5547ZM72.6172 139.359C74.6953 139.359 76.2578 140.766 76.2578 142.766C76.2578 144.797 74.6953 146.188 72.6172 146.188C70.5391 146.188 68.9766 144.797 68.9766 142.766C68.9766 140.766 70.5391 139.359 72.6172 139.359ZM72.6172 140.438C71.2109 140.438 70.1641 141.406 70.1797 142.766C70.1641 144.156 71.2109 145.109 72.6172 145.109C73.9922 145.109 75.0547 144.156 75.0547 142.766C75.0547 141.406 73.9922 140.438 72.6172 140.438ZM93.9297 138.375V152.297H92.6953V138.375H93.9297ZM86.5391 139.453C88.6016 139.469 90.0859 141.344 90.0859 144.297C90.0859 147.25 88.6016 149.125 86.5391 149.125C84.4609 149.125 82.9922 147.25 82.9922 144.297C82.9922 141.344 84.4609 139.469 86.5391 139.453ZM86.5391 140.547C85.1484 140.562 84.1797 142.031 84.1797 144.297C84.1797 146.562 85.1484 148.031 86.5391 148.031C87.9297 148.031 88.8984 146.562 88.8984 144.297C88.8984 142.031 87.9297 140.562 86.5391 140.547ZM103.086 146.531V148.266H105.617V146.531H106.758V152.078H101.93V146.531H103.086ZM103.086 151.109H105.617V149.203H103.086V151.109ZM110.727 147.625C110.711 149.094 111.586 150.625 113.289 151.25L112.648 152.188C111.367 151.672 110.523 150.695 110.102 149.531C109.656 150.672 108.812 151.656 107.586 152.188L106.945 151.25C108.617 150.562 109.508 149.031 109.508 147.625V146.438H110.727V147.625ZM104.148 139C106.008 139 107.43 140.055 107.695 141.656H110.602V138.375H111.836V145.734H110.602V142.672H107.711C107.461 144.312 106.031 145.391 104.148 145.391C102.039 145.391 100.539 144.094 100.539 142.188C100.539 140.297 102.039 139 104.148 139ZM104.148 140.031C102.727 140.031 101.711 140.922 101.711 142.188C101.711 143.469 102.727 144.375 104.148 144.375C105.555 144.375 106.555 143.469 106.555 142.188C106.555 140.922 105.555 140.031 104.148 140.031ZM117.883 139.453C119.773 139.469 121.133 141.086 121.336 143.688H124.445V138.375H125.664V152.297H124.445V144.703H121.352C121.203 147.422 119.82 149.125 117.883 149.125C115.836 149.125 114.398 147.25 114.398 144.297C114.398 141.344 115.836 139.469 117.883 139.453ZM117.883 140.547C116.508 140.562 115.57 142.031 115.57 144.297C115.57 146.562 116.508 148.031 117.883 148.031C119.242 148.031 120.195 146.562 120.195 144.297C120.195 142.031 119.242 140.562 117.883 140.547ZM140.695 149.453V150.484H127.977V149.453H131.133V145.703C129.945 145.086 129.227 144.086 129.227 142.828C129.227 140.672 131.336 139.266 134.305 139.25C137.273 139.266 139.383 140.672 139.383 142.828C139.383 144.062 138.688 145.055 137.539 145.672V149.453H140.695ZM134.305 140.266C132.023 140.25 130.414 141.281 130.414 142.828C130.414 144.375 132.023 145.422 134.305 145.422C136.57 145.422 138.195 144.375 138.195 142.828C138.195 141.281 136.57 140.25 134.305 140.266ZM132.336 149.453H136.305V146.141C135.703 146.305 135.031 146.391 134.305 146.391C133.594 146.391 132.93 146.312 132.336 146.156V149.453Z" fill="#9FACBD"/>
</svg>
