<svg width="18" height="17" viewBox="0 0 18 17" fill="none" xmlns="http://www.w3.org/2000/svg">
<path d="M9.00002 14.2752L4.85002 16.7752C4.66668 16.8919 4.47502 16.9419 4.27501 16.9252C4.07501 16.9085 3.90001 16.8419 3.75002 16.7252C3.60001 16.6085 3.48335 16.4627 3.40002 16.2877C3.31668 16.1127 3.30002 15.9169 3.35002 15.7002L4.45002 10.9752L0.775015 7.80019C0.608348 7.6502 0.504182 7.47936 0.462515 7.28769C0.420848 7.09603 0.433348 6.90853 0.500015 6.72519C0.566682 6.54186 0.666682 6.39186 0.800015 6.2752C0.933348 6.15853 1.11668 6.08353 1.35002 6.0502L6.20002 5.6252L8.07502 1.1752C8.15835 0.975195 8.28752 0.825195 8.46252 0.725195C8.63752 0.625195 8.81668 0.575195 9.00002 0.575195C9.18335 0.575195 9.36252 0.625195 9.53752 0.725195C9.71252 0.825195 9.84168 0.975195 9.92502 1.1752L11.8 5.6252L16.65 6.0502C16.8833 6.08353 17.0667 6.15853 17.2 6.2752C17.3333 6.39186 17.4333 6.54186 17.5 6.72519C17.5667 6.90853 17.5792 7.09603 17.5375 7.28769C17.4958 7.47936 17.3917 7.6502 17.225 7.80019L13.55 10.9752L14.65 15.7002C14.7 15.9169 14.6833 16.1127 14.6 16.2877C14.5167 16.4627 14.4 16.6085 14.25 16.7252C14.1 16.8419 13.925 16.9085 13.725 16.9252C13.525 16.9419 13.3333 16.8919 13.15 16.7752L9.00002 14.2752Z" fill="#CFDBEA"/>
</svg>
