<svg width="78" height="270" viewBox="0 0 78 270" fill="none" xmlns="http://www.w3.org/2000/svg">
<mask id="mask0_14134_11471" style="mask-type:alpha" maskUnits="userSpaceOnUse" x="0" y="0" width="78" height="270">
<rect width="78" height="270" fill="#D9D9D9"/>
</mask>
<g mask="url(#mask0_14134_11471)">
<path d="M54.3152 82.2903V4.94548C54.3152 2.6484 52.4529 0.786133 50.1558 0.786133H27.8442C25.5471 0.786133 23.6848 2.6484 23.6848 4.94548V82.2903C23.6848 86.6263 22.2411 90.8387 19.5809 94.263L9.65229 107.044C3.39579 115.098 0 125.006 0 135.204V290.695C0 295.4 3.81429 299.215 8.51978 299.215H69.4802C74.1857 299.215 78 295.4 78 290.695V135.204C78 125.005 74.6036 115.098 68.3477 107.044L58.4191 94.263C55.7589 90.8387 54.3152 86.6263 54.3152 82.2903Z"/>
<rect x="29.209" y="158.452" width="48.789" height="67.59" rx="4.11" ry="4.11" fill="#9170EE" />
<rect x="23.6836" y="0.786133" width="30.6309" height="72.255267" rx="2.29" ry="2.29" fill="#5732BF" />
<rect x="21.2031" y="14.126" width="35.5917" height="14.9954" rx="1.7" ry="1.7" fill="#5732BF" />
</g>
</svg>
