<svg width="28" height="24" viewBox="0 0 28 24" fill="none" xmlns="http://www.w3.org/2000/svg">
<path d="M14.0003 19.3333C15.667 19.3333 17.0837 18.75 18.2503 17.5833C19.417 16.4167 20.0003 15 20.0003 13.3333C20.0003 11.6667 19.417 10.25 18.2503 9.08333C17.0837 7.91667 15.667 7.33333 14.0003 7.33333C12.3337 7.33333 10.917 7.91667 9.75033 9.08333C8.58366 10.25 8.00033 11.6667 8.00033 13.3333C8.00033 15 8.58366 16.4167 9.75033 17.5833C10.917 18.75 12.3337 19.3333 14.0003 19.3333ZM14.0003 16.6667C13.067 16.6667 12.2781 16.3444 11.6337 15.7C10.9892 15.0556 10.667 14.2667 10.667 13.3333C10.667 12.4 10.9892 11.6111 11.6337 10.9667C12.2781 10.3222 13.067 10 14.0003 10C14.9337 10 15.7225 10.3222 16.367 10.9667C17.0114 11.6111 17.3337 12.4 17.3337 13.3333C17.3337 14.2667 17.0114 15.0556 16.367 15.7C15.7225 16.3444 14.9337 16.6667 14.0003 16.6667ZM3.33366 24C2.60033 24 1.97255 23.7389 1.45033 23.2167C0.928103 22.6944 0.666992 22.0667 0.666992 21.3333V5.33333C0.666992 4.6 0.928103 3.97222 1.45033 3.45C1.97255 2.92778 2.60033 2.66667 3.33366 2.66667H7.53366L9.20033 0.866667C9.44477 0.6 9.73921 0.388889 10.0837 0.233333C10.4281 0.0777778 10.7892 0 11.167 0H16.8337C17.2114 0 17.5725 0.0777778 17.917 0.233333C18.2614 0.388889 18.5559 0.6 18.8003 0.866667L20.467 2.66667H24.667C25.4003 2.66667 26.0281 2.92778 26.5503 3.45C27.0725 3.97222 27.3337 4.6 27.3337 5.33333V21.3333C27.3337 22.0667 27.0725 22.6944 26.5503 23.2167C26.0281 23.7389 25.4003 24 24.667 24H3.33366Z" fill="#CFDBEA"/>
</svg>
