<svg width="82" height="24" viewBox="0 0 82 24" fill="none" xmlns="http://www.w3.org/2000/svg">
<path d="M26.1078 16.2262C26.1078 17.1664 25.9279 18.0538 25.5679 18.8884C25.2186 19.7124 24.7316 20.436 24.107 21.0593C23.493 21.672 22.7679 22.1579 21.9315 22.5171C21.1058 22.8657 20.2218 23.04 19.2797 23.04C18.4328 23.04 17.6176 22.8921 16.8342 22.5963C16.0614 22.3005 15.3627 21.8674 14.7381 21.2969C14.1135 21.8674 13.4095 22.3005 12.6262 22.5963C11.8428 22.8921 11.0276 23.04 10.1807 23.04C9.23854 23.04 8.34928 22.8657 7.51296 22.5171C6.68723 22.1579 5.96207 21.672 5.33747 21.0593C4.72347 20.436 4.2365 19.7124 3.87656 18.8884C3.52721 18.0538 3.35254 17.1664 3.35254 16.2262V0H7.90995V16.2262C7.90995 16.5432 7.96818 16.8442 8.08463 17.1295C8.20108 17.4041 8.35987 17.6471 8.56101 17.8584C8.77274 18.0591 9.01622 18.2176 9.29147 18.3338C9.56671 18.45 9.86313 18.5081 10.1807 18.5081C10.4983 18.5081 10.7947 18.45 11.07 18.3338C11.3452 18.2176 11.5834 18.0591 11.7845 17.8584C11.9963 17.6471 12.1604 17.4041 12.2768 17.1295C12.3933 16.8442 12.4515 16.5432 12.4515 16.2262V0H17.0089V16.2262C17.0089 16.5432 17.0671 16.8442 17.1836 17.1295C17.3 17.4041 17.4588 17.6471 17.66 17.8584C17.8717 18.0591 18.1152 18.2176 18.3904 18.3338C18.6657 18.45 18.9621 18.5081 19.2797 18.5081C19.5973 18.5081 19.8937 18.45 20.1689 18.3338C20.4442 18.2176 20.6824 18.0591 20.8835 17.8584C21.0952 17.6471 21.2593 17.4041 21.3758 17.1295C21.5028 16.8442 21.5663 16.5432 21.5663 16.2262V0H26.1078V16.2262Z" fill="url(#paint0_linear_12739_505)"/>
<path d="M35.6088 0H30.7158V23.04H35.6088V0Z" fill="url(#paint1_linear_12739_505)"/>
<path d="M58.4306 22.8818H53.5556L44.7742 7.9232V22.8818H40.2168V0.158691H45.0918L53.8732 15.1331V0.158691H58.4306V22.8818Z" fill="url(#paint2_linear_12739_505)"/>
<path d="M78.6476 22.8818H63.0381V0.158691H78.6476V4.70648H67.5955V9.25426H75.0747V13.802H67.5955V18.334H78.6476V22.8818Z" fill="url(#paint3_linear_12739_505)"/>
<defs>
<linearGradient id="paint0_linear_12739_505" x1="3.4002" y1="0.31992" x2="146.2" y2="41.5199" gradientUnits="userSpaceOnUse">
<stop stop-color="#6A42DB"/>
<stop offset="1" stop-color="#D842DB"/>
</linearGradient>
<linearGradient id="paint1_linear_12739_505" x1="2.20019" y1="0.319922" x2="181" y2="50.7199" gradientUnits="userSpaceOnUse">
<stop stop-color="#6A42DB"/>
<stop offset="1" stop-color="#D842DB"/>
</linearGradient>
<linearGradient id="paint2_linear_12739_505" x1="3.80039" y1="0.32002" x2="147" y2="42.32" gradientUnits="userSpaceOnUse">
<stop stop-color="#6A42DB"/>
<stop offset="1" stop-color="#D842DB"/>
</linearGradient>
<linearGradient id="paint3_linear_12739_505" x1="27.7998" y1="-2.07998" x2="128.2" y2="31.12" gradientUnits="userSpaceOnUse">
<stop stop-color="#6A42DB"/>
<stop offset="1" stop-color="#D842DB"/>
</linearGradient>
</defs>
</svg>
