<svg width="24" height="23" viewBox="0 0 24 23" fill="none" xmlns="http://www.w3.org/2000/svg">
<path d="M11.9999 19.0333L6.46652 22.3666C6.22208 22.5222 5.96652 22.5888 5.69986 22.5666C5.43319 22.5444 5.19986 22.4555 4.99986 22.2999C4.79986 22.1444 4.6443 21.9499 4.53319 21.7166C4.42208 21.4833 4.39986 21.2222 4.46652 20.9333L5.93319 14.6333L1.03319 10.3999C0.810968 10.1999 0.672079 9.97216 0.616524 9.7166C0.560968 9.46105 0.577635 9.21105 0.666524 8.9666C0.755413 8.72216 0.888746 8.52216 1.06652 8.3666C1.2443 8.21105 1.48875 8.11105 1.79986 8.0666L8.26652 7.49994L10.7665 1.5666C10.8776 1.29993 11.0499 1.09993 11.2832 0.966602C11.5165 0.833268 11.7554 0.766602 11.9999 0.766602C12.2443 0.766602 12.4832 0.833268 12.7165 0.966602C12.9499 1.09993 13.1221 1.29993 13.2332 1.5666L15.7332 7.49994L22.1999 8.0666C22.511 8.11105 22.7554 8.21105 22.9332 8.3666C23.111 8.52216 23.2443 8.72216 23.3332 8.9666C23.4221 9.21105 23.4387 9.46105 23.3832 9.7166C23.3276 9.97216 23.1887 10.1999 22.9665 10.3999L18.0665 14.6333L19.5332 20.9333C19.5999 21.2222 19.5776 21.4833 19.4665 21.7166C19.3554 21.9499 19.1999 22.1444 18.9999 22.2999C18.7999 22.4555 18.5665 22.5444 18.2999 22.5666C18.0332 22.5888 17.7776 22.5222 17.5332 22.3666L11.9999 19.0333Z" fill="#CFDBEA"/>
</svg>
