<svg width="55" height="54" viewBox="0 0 55 54" fill="none" xmlns="http://www.w3.org/2000/svg">
<g clip-path="url(#clip0_12739_8405)">
<path d="M41.8157 53.5557L37.8208 51.2021V38.7751C37.8208 38.3281 37.4585 37.9658 37.0116 37.9658C36.5647 37.9658 36.2024 38.3281 36.2024 38.7751V51.2021L32.2075 53.5557C32.0922 53.6236 32.1404 53.8003 32.2742 53.8003H41.7489C41.8828 53.8003 41.931 53.6236 41.8157 53.5557Z" fill="white"/>
<path d="M20.2163 14.839V0.947245C20.2163 0.534672 19.8819 0.200195 19.4693 0.200195H15.462C15.0494 0.200195 14.7149 0.534672 14.7149 0.947245V14.839C14.7149 15.6177 14.4556 16.3743 13.9778 16.9893L12.1946 19.2849C11.0708 20.7314 10.4609 22.511 10.4609 24.3426V52.27C10.4609 53.1151 11.146 53.8002 11.9912 53.8002H22.9401C23.7852 53.8002 24.4703 53.1151 24.4703 52.27V24.3426C24.4703 22.5109 23.8603 20.7314 22.7367 19.2849L20.9535 16.9893C20.4757 16.3743 20.2163 15.6177 20.2163 14.839Z" fill="#6A42DB"/>
<path d="M42.7726 23.416H31.2521C31.2521 23.416 28.5608 30.0645 29.8197 34.3139C30.8683 37.8528 33.9861 39.3687 35.7533 39.9582C36.5705 40.2308 37.4541 40.2308 38.2711 39.9582C40.0384 39.3687 43.1562 37.8528 44.2047 34.3139C45.464 30.0645 42.7726 23.416 42.7726 23.416Z" fill="white"/>
<path d="M29.5375 30.4736C29.4265 31.8099 29.4753 33.1519 29.8197 34.3143C30.8683 37.8533 33.9861 39.3691 35.7533 39.9586C36.5705 40.2312 37.4539 40.2312 38.2711 39.9586C40.0384 39.3691 43.1562 37.8533 44.2047 34.3143C44.5491 33.1519 44.5979 31.8099 44.487 30.4736H29.5375Z" fill="#6A42DB"/>
<path d="M24.4699 40.6582H17.0432C16.3052 40.6582 15.707 40.06 15.707 39.3221V29.8547C15.707 29.1167 16.3052 28.5186 17.0432 28.5186H24.4699V40.6582Z" fill="#9170EE"/>
<path d="M19.4683 0.200195H15.4609C15.0483 0.200195 14.7139 0.534672 14.7139 0.947245V13.1778H20.2154C20.2154 13.1778 20.2154 3.70827 20.2154 0.947245C20.2153 0.534672 19.8808 0.200195 19.4683 0.200195Z" fill="#5732BF"/>
<path d="M20.3556 5.289H14.574C14.4054 5.289 14.2686 5.15228 14.2686 4.98352V2.90118C14.2686 2.73253 14.4053 2.5957 14.574 2.5957H20.3556C20.5243 2.5957 20.6611 2.73242 20.6611 2.90118V4.98352C20.661 5.15228 20.5243 5.289 20.3556 5.289Z" fill="#5732BF"/>
</g>
<defs>
<clipPath id="clip0_12739_8405">
<rect width="53.6" height="53.6" fill="white" transform="translate(0.700195 0.200195)"/>
</clipPath>
</defs>
</svg>
